# xmcd
#
# Track frame offsets: 
#        150
#        8556
#        19751
#        35696
#        45695
#        61351
#        78186
#        92151
#        105351
#        120709
#        136377
#        145438
#
# Disc length: 2058 seconds
#
# Revision: 0
# Processed by: cddbd v1.5.2PL0 Copyright (c) Steve Scherf et al.
# Submitted via: ExactAudioCopy v1.0b3
#
DISCID=9808080c
DTITLE=Boxcar Willie - Boxcar Willie
DYEAR=2207
DGENRE=Country
TTITLE0=Hey Good Lookin'
TTITLE1=Wreck of the Old 97
TTITLE2=Your Cheatin Heart
TTITLE3=King of the Road
TTITLE4=Kaw Liga
TTITLE5=Mule Train
TTITLE6=You are my Sunshine
TTITLE7=San Antonio Rose
TTITLE8=Boxcar Blues
TTITLE9=Wabash Cannonball
TTITLE10=Hank and the Hobo
TTITLE11=Divorce Me C O D
EXTD=
EXTT0=
EXTT1=
EXTT2=
EXTT3=
EXTT4=
EXTT5=
EXTT6=
EXTT7=
EXTT8=
EXTT9=
EXTT10=
EXTT11=
PLAYORDER=
